<?xml version="1.0" encoding="utf-8"?>
<svg viewBox="-77.7741 -503.946 337.3131 312.236" width="337.3131" height="312.236" xmlns="http://www.w3.org/2000/svg">
  <defs>
    <linearGradient id="gradient-3" x1="90.882" x2="90.882" y1="-503.946" y2="-191.71" gradientUnits="userSpaceOnUse" spreadMethod="pad">
      <stop offset="0" style="stop-color: #f12711;"/>
      <stop offset="1" style="stop-color: #f5af19;"/>
    </linearGradient>
  </defs>
  <path d="M 246.519 -414.711 C 253.723 -414.711 259.539 -420.527 259.539 -427.731 L 259.539 -440.752 C 259.539 -447.957 253.723 -453.773 246.519 -453.773 L 192.526 -453.773 C 181.762 -453.773 172.995 -445.005 172.995 -434.242 L 172.995 -427.08 C 166.355 -430.813 158.803 -433.07 150.773 -433.547 C 143.352 -457.679 121.26 -474.736 95.175 -475.083 C 82.849 -493.095 62.537 -503.946 40.445 -503.946 C 5.246 -503.946 -23.66 -476.429 -25.961 -441.75 C -32.21 -438.191 -37.289 -432.853 -40.587 -426.386 C -61.333 -420.223 -76.481 -401.343 -77.566 -379.294 C -77.913 -377.385 -77.826 -375.432 -77.305 -373.479 L -29.302 -205.208 C -27.74 -199.783 -22.792 -196.05 -17.15 -196.05 L 139.272 -196.05 C 142.483 -196.05 145.435 -197.266 147.692 -199.349 C 149.732 -194.792 154.289 -191.71 159.541 -191.71 L 223.081 -191.71 C 229.809 -191.71 235.451 -196.832 236.059 -203.559 L 248.255 -338.844 C 254.635 -339.668 259.539 -345.137 259.539 -351.734 L 259.539 -370.137 C 259.539 -377.341 253.723 -383.157 246.519 -383.157 L 212.057 -383.157 L 212.057 -414.711 L 246.519 -414.711 Z M -62.852 -389.581 C -58.078 -403.296 -46.012 -413.495 -31.256 -415.492 C -29.042 -424.303 -22.141 -431.204 -13.287 -433.33 C -13.374 -434.632 -13.504 -435.934 -13.504 -437.236 C -13.504 -467.141 10.628 -491.316 40.445 -491.316 C 61.278 -491.316 79.333 -479.423 88.318 -462.062 C 90.314 -462.323 92.311 -462.497 94.35 -462.497 C 118.525 -462.497 138.36 -444.007 140.574 -420.353 C 142.918 -420.787 145.305 -421.047 147.735 -421.047 C 157.327 -421.047 166.138 -417.619 172.995 -411.89 L 172.995 -389.581 L -62.852 -389.581 Z M -14.589 -376.951 L 35.888 -376.951 L 37.624 -345.962 C 17.529 -341.448 1.947 -331.378 -4.693 -318.488 L -14.589 -376.951 Z M 13.883 -208.68 L 1.556 -281.466 C 10.497 -271.874 24.95 -264.799 42.355 -261.761 L 45.349 -208.68 L 13.883 -208.68 Z M 4.378 -304.339 C 4.378 -321.439 30.376 -335.892 61.148 -335.892 C 91.963 -335.892 117.961 -321.439 117.961 -304.339 C 117.961 -287.238 91.963 -272.785 61.148 -272.785 C 30.376 -272.785 4.378 -287.238 4.378 -304.339 Z M 108.326 -208.68 L 76.859 -208.68 L 79.854 -261.761 C 97.215 -264.756 111.668 -271.831 120.652 -281.336 L 108.326 -208.68 Z M 126.945 -318.618 C 120.218 -331.465 104.68 -341.535 84.585 -345.962 L 86.321 -376.951 L 124.992 -376.951 C 123.777 -374.998 123.083 -372.654 123.083 -370.137 L 123.083 -351.734 C 123.083 -346.569 126.121 -342.055 130.548 -339.972 L 126.945 -318.618 Z M 219.114 -204.731 L 163.503 -204.731 C 161.259 -204.731 159.384 -206.441 159.18 -208.68 L 157.544 -226.736 L 147.431 -338.713 L 235.191 -338.713 L 223.437 -208.68 C 223.238 -206.445 221.363 -204.731 219.114 -204.731 Z M 246.519 -365.796 L 246.519 -356.074 C 246.519 -353.678 244.574 -351.734 242.178 -351.734 L 236.362 -351.734 L 236.362 -351.908 L 146.259 -351.908 L 140.444 -351.734 C 138.048 -351.734 136.103 -353.678 136.103 -356.074 L 136.103 -365.796 C 136.103 -368.192 138.048 -370.137 140.444 -370.137 L 242.178 -370.137 C 244.574 -370.137 246.519 -368.192 246.519 -365.796 Z M 199.037 -423.391 L 199.037 -383.157 L 186.016 -383.157 L 186.016 -434.242 C 186.016 -437.835 188.933 -440.752 192.526 -440.752 L 242.178 -440.752 C 244.574 -440.752 246.519 -438.808 246.519 -436.412 L 246.519 -432.072 C 246.519 -429.676 244.574 -427.731 242.178 -427.731 L 203.377 -427.731 C 200.981 -427.731 199.037 -425.787 199.037 -423.391 Z" style="fill-rule: nonzero; paint-order: fill; fill: url('#gradient-3');"/>
</svg>