<svg xmlns="http://www.w3.org/2000/svg" version="1.1" xmlns:xlink="http://www.w3.org/1999/xlink" xmlns:svgjs="http://svgjs.dev/svgjs" width="1500" height="1500" viewBox="0 0 1500 1500"><rect width="1500" height="1500" fill="#000000"></rect><g transform="matrix(0.6666666666666666,0,0,0.6666666666666666,249.39393939393938,594.2316441112941)"><svg viewBox="0 0 396 124" data-background-color="#ffffff" preserveAspectRatio="xMidYMid meet" height="469" width="1500" xmlns="http://www.w3.org/2000/svg" xmlns:xlink="http://www.w3.org/1999/xlink"><g id="tight-bounds" transform="matrix(1,0,0,1,0.2400000000000091,-0.22406354946846818)"><svg viewBox="0 0 395.52 124.44812709893695" height="124.44812709893695" width="395.52"><g><svg viewBox="0 0 638.8165242277806 200.99999999999997" height="124.44812709893695" width="395.52"><g></g><g transform="matrix(1,0,0,1,268.77477057433595,0.4999999999999858)"><svg viewBox="0 0 370.0417536534447 200" height="200" width="370.0417536534447"><g id="textblocktransform"><svg viewBox="0 0 370.0417536534447 200" height="200" width="370.0417536534447" id="textblock"><g><svg viewBox="0 0 370.0417536534447 200" height="200" width="370.0417536534447"><g transform="matrix(1,0,0,1,0,0)"><svg width="370.0417536534447" viewBox="2.0999999999999996 -34.9 179.8 83.4" height="200" data-palette-color="url(#4f3871cc-f54b-4e37-b964-1d345af71441)"><svg></svg><svg></svg><g class="wordmark-text-0" data-fill-palette-color="primary" id="text-0"></g></svg></g></svg></g></svg></g></svg></g><g transform="matrix(1,0,0,1,0,0.4999999999999858)"><svg viewBox="0 0 216.06338615512925 200" height="200" width="216.06338615512925"><g><svg xmlns="http://www.w3.org/2000/svg" xmlns:xlink="http://www.w3.org/1999/xlink" version="1.1" x="0" y="0" viewBox="11.140999999999996 14.030000000000003 77.718 71.94000000000001" enable-background="new 0 0 100 100" xml:space="preserve" height="200" width="216.06338615512925" class="icon-icon-0" data-fill-palette-color="accent" id="icon-0"></svg></g></svg></g></svg></g><defs></defs><mask id="c7906f3d-976f-4716-b5f9-d1629a870f3b"><g id="SvgjsG2616"><svg viewBox="0 0 395.52 124.44812709893695" height="124.44812709893695" width="395.52"><g><svg viewBox="0 0 638.8165242277806 200.99999999999997" height="124.44812709893695" width="395.52"><g><rect width="8.453295066388309" height="200.99999999999997" x="238.19243083153845" y="0" fill="white" opacity="1" stroke-width="0" stroke="transparent" fill-opacity="1" class="rect-qz-0" rx="1%" id="SvgjsRect2615" data-palette-color="url(#4f3871cc-f54b-4e37-b964-1d345af71441)"></rect></g><g transform="matrix(1,0,0,1,268.77477057433595,0.4999999999999858)"><svg viewBox="0 0 370.0417536534447 200" height="200" width="370.0417536534447"><g id="SvgjsG2614"><svg viewBox="0 0 370.0417536534447 200" height="200" width="370.0417536534447" id="SvgjsSvg2613"><g><svg viewBox="0 0 370.0417536534447 200" height="200" width="370.0417536534447"><g transform="matrix(1,0,0,1,0,0)"><svg width="370.0417536534447" viewBox="2.0999999999999996 -34.9 179.8 83.4" height="200" data-palette-color="url(#4f3871cc-f54b-4e37-b964-1d345af71441)"><svg></svg><svg></svg><g class="wordmark-text-0" data-fill-palette-color="primary" id="SvgjsG2612"><path d="M8.85 0h-4.2v-34.9h13.9c3.133 0 5.543 0.89 7.23 2.67 1.68 1.787 2.52 4.23 2.52 7.33v0c0 3.1-0.84 5.543-2.52 7.33-1.687 1.78-4.097 2.67-7.23 2.67v0h-9.7zM8.85-31.2v12.6h9.7c1.667 0 2.96-0.433 3.88-1.3 0.913-0.867 1.37-2.1 1.37-3.7v0-2.6c0-1.6-0.457-2.833-1.37-3.7-0.92-0.867-2.213-1.3-3.88-1.3v0zM43.3 0.6v0c-1.733 0-3.317-0.317-4.75-0.95-1.433-0.633-2.657-1.543-3.67-2.73-1.02-1.18-1.813-2.597-2.38-4.25-0.567-1.647-0.85-3.503-0.85-5.57v0c0-2.033 0.283-3.883 0.85-5.55 0.567-1.667 1.36-3.093 2.38-4.28 1.013-1.18 2.237-2.087 3.67-2.72 1.433-0.633 3.017-0.95 4.75-0.95v0c1.733 0 3.31 0.317 4.73 0.95 1.413 0.633 2.637 1.54 3.67 2.72 1.033 1.187 1.833 2.613 2.4 4.28 0.567 1.667 0.85 3.517 0.85 5.55v0c0 2.067-0.283 3.923-0.85 5.57-0.567 1.653-1.367 3.07-2.4 4.25-1.033 1.187-2.257 2.097-3.67 2.73-1.42 0.633-2.997 0.95-4.73 0.95zM43.3-2.95v0c2.167 0 3.933-0.667 5.3-2 1.367-1.333 2.05-3.367 2.05-6.1v0-3.7c0-2.733-0.683-4.767-2.05-6.1-1.367-1.333-3.133-2-5.3-2v0c-2.167 0-3.933 0.667-5.3 2-1.367 1.333-2.05 3.367-2.05 6.1v0 3.7c0 2.733 0.683 4.767 2.05 6.1 1.367 1.333 3.133 2 5.3 2zM61.55 10v-35.8h4v4.2h0.2c0.667-1.633 1.64-2.843 2.92-3.63 1.287-0.78 2.83-1.17 4.63-1.17v0c1.6 0 3.05 0.317 4.35 0.95 1.3 0.633 2.407 1.533 3.32 2.7 0.92 1.167 1.623 2.583 2.11 4.25 0.48 1.667 0.72 3.533 0.72 5.6v0c0 2.067-0.24 3.933-0.72 5.6-0.487 1.667-1.19 3.083-2.11 4.25-0.913 1.167-2.02 2.067-3.32 2.7-1.3 0.633-2.75 0.95-4.35 0.95v0c-3.5 0-6.017-1.6-7.55-4.8v0h-0.2v14.2zM72.2-3v0c2.267 0 4.05-0.71 5.35-2.13 1.3-1.413 1.95-3.27 1.95-5.57v0-4.4c0-2.3-0.65-4.16-1.95-5.58-1.3-1.413-3.083-2.12-5.35-2.12v0c-0.9 0-1.757 0.123-2.57 0.37-0.82 0.253-1.53 0.597-2.13 1.03-0.6 0.433-1.073 0.957-1.42 1.57-0.353 0.62-0.53 1.28-0.53 1.98v0 9.6c0 0.833 0.177 1.573 0.53 2.22 0.347 0.653 0.82 1.203 1.42 1.65 0.6 0.453 1.31 0.797 2.13 1.03 0.813 0.233 1.67 0.35 2.57 0.35zM100.15 0.6v0c-1.8 0-3.417-0.317-4.85-0.95-1.433-0.633-2.643-1.533-3.63-2.7-0.98-1.167-1.73-2.583-2.25-4.25-0.513-1.667-0.77-3.533-0.77-5.6v0c0-2.067 0.257-3.933 0.77-5.6 0.52-1.667 1.27-3.083 2.25-4.25 0.987-1.167 2.197-2.067 3.63-2.7 1.433-0.633 3.05-0.95 4.85-0.95v0c2.567 0 4.627 0.557 6.18 1.67 1.547 1.12 2.703 2.58 3.47 4.38v0l-3.35 1.7c-0.467-1.333-1.233-2.367-2.3-3.1-1.067-0.733-2.4-1.1-4-1.1v0c-1.2 0-2.25 0.19-3.15 0.57-0.9 0.387-1.65 0.92-2.25 1.6-0.6 0.687-1.05 1.503-1.35 2.45-0.3 0.953-0.45 1.997-0.45 3.13v0 4.4c0 2.267 0.607 4.123 1.82 5.57 1.22 1.453 3.013 2.18 5.38 2.18v0c3.233 0 5.567-1.5 7-4.5v0l2.9 1.95c-0.833 1.867-2.073 3.35-3.72 4.45-1.653 1.1-3.713 1.65-6.18 1.65zM125.15 0.6v0c-1.733 0-3.317-0.317-4.75-0.95-1.433-0.633-2.657-1.543-3.67-2.73-1.02-1.18-1.813-2.597-2.38-4.25-0.567-1.647-0.85-3.503-0.85-5.57v0c0-2.033 0.283-3.883 0.85-5.55 0.567-1.667 1.36-3.093 2.38-4.28 1.013-1.18 2.237-2.087 3.67-2.72 1.433-0.633 3.017-0.95 4.75-0.95v0c1.733 0 3.31 0.317 4.73 0.95 1.413 0.633 2.637 1.54 3.67 2.72 1.033 1.187 1.833 2.613 2.4 4.28 0.567 1.667 0.85 3.517 0.85 5.55v0c0 2.067-0.283 3.923-0.85 5.57-0.567 1.653-1.367 3.07-2.4 4.25-1.033 1.187-2.257 2.097-3.67 2.73-1.42 0.633-2.997 0.95-4.73 0.95zM125.15-2.95v0c2.167 0 3.933-0.667 5.3-2 1.367-1.333 2.05-3.367 2.05-6.1v0-3.7c0-2.733-0.683-4.767-2.05-6.1-1.367-1.333-3.133-2-5.3-2v0c-2.167 0-3.933 0.667-5.3 2-1.367 1.333-2.05 3.367-2.05 6.1v0 3.7c0 2.733 0.683 4.767 2.05 6.1 1.367 1.333 3.133 2 5.3 2zM147.4 0h-4v-25.8h4v4.75h0.25c0.467-1.233 1.3-2.333 2.5-3.3 1.2-0.967 2.85-1.45 4.95-1.45v0h1.55v4h-2.35c-2.167 0-3.86 0.407-5.08 1.22-1.213 0.82-1.82 1.847-1.82 3.08v0zM165.75 0h-4v-25.8h4v4.2h0.2c0.633-1.467 1.527-2.633 2.68-3.5 1.147-0.867 2.687-1.3 4.62-1.3v0c2.667 0 4.773 0.857 6.32 2.57 1.553 1.72 2.33 4.147 2.33 7.28v0 16.55h-4v-15.85c0-4.633-1.95-6.95-5.85-6.95v0c-0.8 0-1.577 0.1-2.33 0.3-0.747 0.2-1.42 0.5-2.02 0.9-0.6 0.4-1.073 0.907-1.42 1.52-0.353 0.62-0.53 1.347-0.53 2.18v0z" fill="white" fill-rule="nonzero" stroke="none" stroke-width="1" stroke-linecap="butt" stroke-linejoin="miter" stroke-miterlimit="10" stroke-dasharray="" stroke-dashoffset="0" font-family="none" font-weight="none" font-size="none" text-anchor="none" style="mix-blend-mode: normal" opacity="1"></path><path transform="translate(0,47.9)" d="M14.45 0.6v0c-2.833 0-5.25-0.543-7.25-1.63-2-1.08-3.7-2.57-5.1-4.47v0l3.1-2.6c1.233 1.633 2.6 2.873 4.1 3.72 1.5 0.853 3.267 1.28 5.3 1.28v0c2.5 0 4.41-0.6 5.73-1.8 1.313-1.2 1.97-2.8 1.97-4.8v0c0-1.667-0.5-2.95-1.5-3.85-1-0.9-2.65-1.617-4.95-2.15v0l-2.85-0.65c-3.2-0.733-5.64-1.843-7.32-3.33-1.687-1.48-2.53-3.57-2.53-6.27v0c0-1.533 0.283-2.9 0.85-4.1 0.567-1.2 1.36-2.2 2.38-3 1.013-0.8 2.23-1.41 3.65-1.83 1.413-0.413 2.97-0.62 4.67-0.62v0c2.633 0 4.893 0.483 6.78 1.45 1.88 0.967 3.47 2.383 4.77 4.25v0l-3.15 2.3c-0.967-1.333-2.133-2.383-3.5-3.15-1.367-0.767-3.067-1.15-5.1-1.15v0c-2.233 0-3.993 0.473-5.28 1.42-1.28 0.953-1.92 2.38-1.92 4.28v0c0 1.667 0.543 2.923 1.63 3.77 1.08 0.853 2.72 1.53 4.92 2.03v0l2.85 0.65c3.433 0.767 5.917 1.933 7.45 3.5 1.533 1.567 2.3 3.65 2.3 6.25v0c0 1.6-0.273 3.05-0.82 4.35-0.553 1.3-1.347 2.4-2.38 3.3-1.033 0.9-2.29 1.6-3.77 2.1-1.487 0.5-3.163 0.75-5.03 0.75zM33.3 0v-37h4v15.4h0.2c0.633-1.467 1.523-2.633 2.67-3.5 1.153-0.867 2.697-1.3 4.63-1.3v0c2.667 0 4.777 0.857 6.33 2.57 1.547 1.72 2.32 4.147 2.32 7.28v0 16.55h-4v-15.85c0-4.633-1.95-6.95-5.85-6.95v0c-0.8 0-1.573 0.1-2.32 0.3-0.753 0.2-1.43 0.5-2.03 0.9-0.6 0.4-1.073 0.907-1.42 1.52-0.353 0.62-0.53 1.347-0.53 2.18v0 17.9zM71.45 0.6v0c-1.733 0-3.317-0.317-4.75-0.95-1.433-0.633-2.657-1.543-3.67-2.73-1.02-1.18-1.813-2.597-2.38-4.25-0.567-1.647-0.85-3.503-0.85-5.57v0c0-2.033 0.283-3.883 0.85-5.55 0.567-1.667 1.36-3.093 2.38-4.28 1.013-1.18 2.237-2.087 3.67-2.72 1.433-0.633 3.017-0.95 4.75-0.95v0c1.733 0 3.31 0.317 4.73 0.95 1.413 0.633 2.637 1.54 3.67 2.72 1.033 1.187 1.833 2.613 2.4 4.28 0.567 1.667 0.85 3.517 0.85 5.55v0c0 2.067-0.283 3.923-0.85 5.57-0.567 1.653-1.367 3.07-2.4 4.25-1.033 1.187-2.257 2.097-3.67 2.73-1.42 0.633-2.997 0.95-4.73 0.95zM71.45-2.95v0c2.167 0 3.933-0.667 5.3-2 1.367-1.333 2.05-3.367 2.05-6.1v0-3.7c0-2.733-0.683-4.767-2.05-6.1-1.367-1.333-3.133-2-5.3-2v0c-2.167 0-3.933 0.667-5.3 2-1.367 1.333-2.05 3.367-2.05 6.1v0 3.7c0 2.733 0.683 4.767 2.05 6.1 1.367 1.333 3.133 2 5.3 2zM93.65 0l-6.9-25.8h3.9l2.75 11.15 2.75 11.3h0.1l3.15-11.3 3.25-11.15h3.55l3.35 11.15 3.2 11.3h0.1l2.65-11.3 2.8-11.15h3.75l-6.85 25.8h-4.95l-3.6-12.4-2.25-7.85h-0.1l-2.2 7.85-3.6 12.4z" fill="white" fill-rule="nonzero" stroke="none" stroke-width="1" stroke-linecap="butt" stroke-linejoin="miter" stroke-miterlimit="10" stroke-dasharray="" stroke-dashoffset="0" font-family="none" font-weight="none" font-size="none" text-anchor="none" style="mix-blend-mode: normal" opacity="1"></path></g></svg></g></svg></g></svg></g></svg></g><g transform="matrix(1,0,0,1,0,0.4999999999999858)"><svg viewBox="0 0 216.06338615512925 200" height="200" width="216.06338615512925"><g><svg xmlns="http://www.w3.org/2000/svg" xmlns:xlink="http://www.w3.org/1999/xlink" version="1.1" x="0" y="0" viewBox="11.140999999999996 14.030000000000003 77.718 71.94000000000001" enable-background="new 0 0 100 100" xml:space="preserve" height="200" width="216.06338615512925" class="icon-icon-0" data-fill-palette-color="accent" id="SvgjsSvg2611"><path fill="black" d="M85.859 34.59c1.66 0 3-1.34 3-3v-3c0-1.66-1.34-3-3-3h-12.44c-2.48 0-4.5 2.02-4.5 4.5v1.65c-1.53-0.86-3.27-1.38-5.12-1.49-1.71-5.56-6.8-9.49-12.81-9.57-2.84-4.15-7.52-6.65-12.61-6.65-8.11 0-14.77 6.34-15.3 14.33-1.44 0.82-2.61 2.05-3.37 3.54-4.78 1.42-8.27 5.77-8.52 10.85-0.08 0.44-0.06 0.89 0.06 1.34l11.06 38.77c0.36 1.25 1.5 2.11 2.8 2.11h36.04c0.74 0 1.42-0.28 1.94-0.76 0.47 1.05 1.52 1.76 2.73 1.76h14.64c1.55 0 2.85-1.18 2.99-2.73l2.81-31.17c1.47-0.19 2.6-1.45 2.6-2.97v-4.24c0-1.66-1.34-3-3-3h-7.94v-7.27H85.859zM14.579 40.38c1.1-3.16 3.88-5.51 7.28-5.97 0.51-2.03 2.1-3.62 4.14-4.11-0.02-0.3-0.05-0.6-0.05-0.9 0-6.89 5.56-12.46 12.43-12.46 4.8 0 8.96 2.74 11.03 6.74 0.46-0.06 0.92-0.1 1.39-0.1 5.57 0 10.14 4.26 10.65 9.71 0.54-0.1 1.09-0.16 1.65-0.16 2.21 0 4.24 0.79 5.82 2.11v5.14H14.579zM25.699 43.29h11.63l0.4 7.14c-4.63 1.04-8.22 3.36-9.75 6.33L25.699 43.29zM32.259 82.06l-2.84-16.77c2.06 2.21 5.39 3.84 9.4 4.54l0.69 12.23H32.259zM30.069 60.02c0-3.94 5.99-7.27 13.08-7.27 7.1 0 13.09 3.33 13.09 7.27s-5.99 7.27-13.09 7.27C36.059 67.29 30.069 63.96 30.069 60.02zM54.019 82.06h-7.25l0.69-12.23c4-0.69 7.33-2.32 9.4-4.51L54.019 82.06zM58.309 56.73c-1.55-2.96-5.13-5.28-9.76-6.3l0.4-7.14h8.91c-0.28 0.45-0.44 0.99-0.44 1.57v4.24c0 1.19 0.7 2.23 1.72 2.71L58.309 56.73zM79.545 82.97H66.732c-0.517 0-0.949-0.394-0.996-0.91l-0.377-4.16-2.33-25.8h20.22l-2.708 29.96C80.495 82.575 80.063 82.97 79.545 82.97zM85.859 45.86v2.24c0 0.552-0.448 1-1 1h-1.34v-0.04h-20.76l-1.34 0.04c-0.552 0-1-0.448-1-1v-2.24c0-0.552 0.448-1 1-1h23.44C85.411 44.86 85.859 45.308 85.859 45.86zM74.919 32.59v9.27h-3V30.09c0-0.828 0.672-1.5 1.5-1.5h11.44c0.552 0 1 0.448 1 1v1c0 0.552-0.448 1-1 1h-8.94C75.367 31.59 74.919 32.038 74.919 32.59z"></path></svg></g></svg></g></svg></g><defs><mask></mask></defs></svg><rect width="395.52" height="124.44812709893695" fill="black" stroke="none" visibility="hidden"></rect></g></mask><linearGradient x1="0" x2="1" y1="0.5" y2="0.5" id="4f3871cc-f54b-4e37-b964-1d345af71441"><stop stop-color="#ffa62e" offset="0"></stop><stop stop-color="#f71b3d" offset="1"></stop></linearGradient><rect width="395.52" height="124.44812709893695" fill="#ffffff" mask="url(#c7906f3d-976f-4716-b5f9-d1629a870f3b)" data-fill-palette-color="primary"></rect><mask id="65564de9-4db6-42b3-a2bc-59a2f9b29ba5"><g id="SvgjsG2627"><svg viewBox="0 0 395.52 124.44812709893695" height="124.44812709893695" width="395.52"><g><svg viewBox="0 0 638.8165242277806 200.99999999999997" height="124.44812709893695" width="395.52"><g></g><g transform="matrix(1,0,0,1,268.77477057433595,0.4999999999999858)"><svg viewBox="0 0 370.0417536534447 200" height="200" width="370.0417536534447"><g id="SvgjsG2626"><svg viewBox="0 0 370.0417536534447 200" height="200" width="370.0417536534447" id="SvgjsSvg2625"><g><svg viewBox="0 0 370.0417536534447 200" height="200" width="370.0417536534447"><g transform="matrix(1,0,0,1,0,0)"><svg width="370.0417536534447" viewBox="2.0999999999999996 -34.9 179.8 83.4" height="200" data-palette-color="url(#4f3871cc-f54b-4e37-b964-1d345af71441)"><svg></svg><svg></svg><g class="wordmark-text-0" data-fill-palette-color="primary" id="SvgjsG2624"></g></svg></g></svg></g></svg></g></svg></g><g transform="matrix(1,0,0,1,0,0.4999999999999858)"><svg viewBox="0 0 216.06338615512925 200" height="200" width="216.06338615512925"><g><svg xmlns="http://www.w3.org/2000/svg" xmlns:xlink="http://www.w3.org/1999/xlink" version="1.1" x="0" y="0" viewBox="11.140999999999996 14.030000000000003 77.718 71.94000000000001" enable-background="new 0 0 100 100" xml:space="preserve" height="200" width="216.06338615512925" class="icon-icon-0" data-fill-palette-color="accent" id="SvgjsSvg2623"><path fill="white" d="M85.859 34.59c1.66 0 3-1.34 3-3v-3c0-1.66-1.34-3-3-3h-12.44c-2.48 0-4.5 2.02-4.5 4.5v1.65c-1.53-0.86-3.27-1.38-5.12-1.49-1.71-5.56-6.8-9.49-12.81-9.57-2.84-4.15-7.52-6.65-12.61-6.65-8.11 0-14.77 6.34-15.3 14.33-1.44 0.82-2.61 2.05-3.37 3.54-4.78 1.42-8.27 5.77-8.52 10.85-0.08 0.44-0.06 0.89 0.06 1.34l11.06 38.77c0.36 1.25 1.5 2.11 2.8 2.11h36.04c0.74 0 1.42-0.28 1.94-0.76 0.47 1.05 1.52 1.76 2.73 1.76h14.64c1.55 0 2.85-1.18 2.99-2.73l2.81-31.17c1.47-0.19 2.6-1.45 2.6-2.97v-4.24c0-1.66-1.34-3-3-3h-7.94v-7.27H85.859zM14.579 40.38c1.1-3.16 3.88-5.51 7.28-5.97 0.51-2.03 2.1-3.62 4.14-4.11-0.02-0.3-0.05-0.6-0.05-0.9 0-6.89 5.56-12.46 12.43-12.46 4.8 0 8.96 2.74 11.03 6.74 0.46-0.06 0.92-0.1 1.39-0.1 5.57 0 10.14 4.26 10.65 9.71 0.54-0.1 1.09-0.16 1.65-0.16 2.21 0 4.24 0.79 5.82 2.11v5.14H14.579zM25.699 43.29h11.63l0.4 7.14c-4.63 1.04-8.22 3.36-9.75 6.33L25.699 43.29zM32.259 82.06l-2.84-16.77c2.06 2.21 5.39 3.84 9.4 4.54l0.69 12.23H32.259zM30.069 60.02c0-3.94 5.99-7.27 13.08-7.27 7.1 0 13.09 3.33 13.09 7.27s-5.99 7.27-13.09 7.27C36.059 67.29 30.069 63.96 30.069 60.02zM54.019 82.06h-7.25l0.69-12.23c4-0.69 7.33-2.32 9.4-4.51L54.019 82.06zM58.309 56.73c-1.55-2.96-5.13-5.28-9.76-6.3l0.4-7.14h8.91c-0.28 0.45-0.44 0.99-0.44 1.57v4.24c0 1.19 0.7 2.23 1.72 2.71L58.309 56.73zM79.545 82.97H66.732c-0.517 0-0.949-0.394-0.996-0.91l-0.377-4.16-2.33-25.8h20.22l-2.708 29.96C80.495 82.575 80.063 82.97 79.545 82.97zM85.859 45.86v2.24c0 0.552-0.448 1-1 1h-1.34v-0.04h-20.76l-1.34 0.04c-0.552 0-1-0.448-1-1v-2.24c0-0.552 0.448-1 1-1h23.44C85.411 44.86 85.859 45.308 85.859 45.86zM74.919 32.59v9.27h-3V30.09c0-0.828 0.672-1.5 1.5-1.5h11.44c0.552 0 1 0.448 1 1v1c0 0.552-0.448 1-1 1h-8.94C75.367 31.59 74.919 32.038 74.919 32.59z"></path></svg></g></svg></g></svg></g><defs><mask></mask></defs><mask><g id="SvgjsG2622"><svg viewBox="0 0 395.52 124.44812709893695" height="124.44812709893695" width="395.52"><g><svg viewBox="0 0 638.8165242277806 200.99999999999997" height="124.44812709893695" width="395.52"><g><rect width="8.453295066388309" height="200.99999999999997" x="238.19243083153845" y="0" fill="black" opacity="1" stroke-width="0" stroke="transparent" fill-opacity="1" class="rect-qz-0" rx="1%" id="SvgjsRect2621" data-palette-color="url(#4f3871cc-f54b-4e37-b964-1d345af71441)"></rect></g><g transform="matrix(1,0,0,1,268.77477057433595,0.4999999999999858)"><svg viewBox="0 0 370.0417536534447 200" height="200" width="370.0417536534447"><g id="SvgjsG2620"><svg viewBox="0 0 370.0417536534447 200" height="200" width="370.0417536534447" id="SvgjsSvg2619"><g><svg viewBox="0 0 370.0417536534447 200" height="200" width="370.0417536534447"><g transform="matrix(1,0,0,1,0,0)"><svg width="370.0417536534447" viewBox="2.0999999999999996 -34.9 179.8 83.4" height="200" data-palette-color="url(#4f3871cc-f54b-4e37-b964-1d345af71441)"><svg></svg><svg></svg><g class="wordmark-text-0" data-fill-palette-color="primary" id="SvgjsG2618"><path d="M8.85 0h-4.2v-34.9h13.9c3.133 0 5.543 0.89 7.23 2.67 1.68 1.787 2.52 4.23 2.52 7.33v0c0 3.1-0.84 5.543-2.52 7.33-1.687 1.78-4.097 2.67-7.23 2.67v0h-9.7zM8.85-31.2v12.6h9.7c1.667 0 2.96-0.433 3.88-1.3 0.913-0.867 1.37-2.1 1.37-3.7v0-2.6c0-1.6-0.457-2.833-1.37-3.7-0.92-0.867-2.213-1.3-3.88-1.3v0zM43.3 0.6v0c-1.733 0-3.317-0.317-4.75-0.95-1.433-0.633-2.657-1.543-3.67-2.73-1.02-1.18-1.813-2.597-2.38-4.25-0.567-1.647-0.85-3.503-0.85-5.57v0c0-2.033 0.283-3.883 0.85-5.55 0.567-1.667 1.36-3.093 2.38-4.28 1.013-1.18 2.237-2.087 3.67-2.72 1.433-0.633 3.017-0.95 4.75-0.95v0c1.733 0 3.31 0.317 4.73 0.95 1.413 0.633 2.637 1.54 3.67 2.72 1.033 1.187 1.833 2.613 2.4 4.28 0.567 1.667 0.85 3.517 0.85 5.55v0c0 2.067-0.283 3.923-0.85 5.57-0.567 1.653-1.367 3.07-2.4 4.25-1.033 1.187-2.257 2.097-3.67 2.73-1.42 0.633-2.997 0.95-4.73 0.95zM43.3-2.95v0c2.167 0 3.933-0.667 5.3-2 1.367-1.333 2.05-3.367 2.05-6.1v0-3.7c0-2.733-0.683-4.767-2.05-6.1-1.367-1.333-3.133-2-5.3-2v0c-2.167 0-3.933 0.667-5.3 2-1.367 1.333-2.05 3.367-2.05 6.1v0 3.7c0 2.733 0.683 4.767 2.05 6.1 1.367 1.333 3.133 2 5.3 2zM61.55 10v-35.8h4v4.2h0.2c0.667-1.633 1.64-2.843 2.92-3.63 1.287-0.78 2.83-1.17 4.63-1.17v0c1.6 0 3.05 0.317 4.35 0.95 1.3 0.633 2.407 1.533 3.32 2.7 0.92 1.167 1.623 2.583 2.11 4.25 0.48 1.667 0.72 3.533 0.72 5.6v0c0 2.067-0.24 3.933-0.72 5.6-0.487 1.667-1.19 3.083-2.11 4.25-0.913 1.167-2.02 2.067-3.32 2.7-1.3 0.633-2.75 0.95-4.35 0.95v0c-3.5 0-6.017-1.6-7.55-4.8v0h-0.2v14.2zM72.2-3v0c2.267 0 4.05-0.71 5.35-2.13 1.3-1.413 1.95-3.27 1.95-5.57v0-4.4c0-2.3-0.65-4.16-1.95-5.58-1.3-1.413-3.083-2.12-5.35-2.12v0c-0.9 0-1.757 0.123-2.57 0.37-0.82 0.253-1.53 0.597-2.13 1.03-0.6 0.433-1.073 0.957-1.42 1.57-0.353 0.62-0.53 1.28-0.53 1.98v0 9.6c0 0.833 0.177 1.573 0.53 2.22 0.347 0.653 0.82 1.203 1.42 1.65 0.6 0.453 1.31 0.797 2.13 1.03 0.813 0.233 1.67 0.35 2.57 0.35zM100.15 0.6v0c-1.8 0-3.417-0.317-4.85-0.95-1.433-0.633-2.643-1.533-3.63-2.7-0.98-1.167-1.73-2.583-2.25-4.25-0.513-1.667-0.77-3.533-0.77-5.6v0c0-2.067 0.257-3.933 0.77-5.6 0.52-1.667 1.27-3.083 2.25-4.25 0.987-1.167 2.197-2.067 3.63-2.7 1.433-0.633 3.05-0.95 4.85-0.95v0c2.567 0 4.627 0.557 6.18 1.67 1.547 1.12 2.703 2.58 3.47 4.38v0l-3.35 1.7c-0.467-1.333-1.233-2.367-2.3-3.1-1.067-0.733-2.4-1.1-4-1.1v0c-1.2 0-2.25 0.19-3.15 0.57-0.9 0.387-1.65 0.92-2.25 1.6-0.6 0.687-1.05 1.503-1.35 2.45-0.3 0.953-0.45 1.997-0.45 3.13v0 4.4c0 2.267 0.607 4.123 1.82 5.57 1.22 1.453 3.013 2.18 5.38 2.18v0c3.233 0 5.567-1.5 7-4.5v0l2.9 1.95c-0.833 1.867-2.073 3.35-3.72 4.45-1.653 1.1-3.713 1.65-6.18 1.65zM125.15 0.6v0c-1.733 0-3.317-0.317-4.75-0.95-1.433-0.633-2.657-1.543-3.67-2.73-1.02-1.18-1.813-2.597-2.38-4.25-0.567-1.647-0.85-3.503-0.85-5.57v0c0-2.033 0.283-3.883 0.85-5.55 0.567-1.667 1.36-3.093 2.38-4.28 1.013-1.18 2.237-2.087 3.67-2.72 1.433-0.633 3.017-0.95 4.75-0.95v0c1.733 0 3.31 0.317 4.73 0.95 1.413 0.633 2.637 1.54 3.67 2.72 1.033 1.187 1.833 2.613 2.4 4.28 0.567 1.667 0.85 3.517 0.85 5.55v0c0 2.067-0.283 3.923-0.85 5.57-0.567 1.653-1.367 3.07-2.4 4.25-1.033 1.187-2.257 2.097-3.67 2.73-1.42 0.633-2.997 0.95-4.73 0.95zM125.15-2.95v0c2.167 0 3.933-0.667 5.3-2 1.367-1.333 2.05-3.367 2.05-6.1v0-3.7c0-2.733-0.683-4.767-2.05-6.1-1.367-1.333-3.133-2-5.3-2v0c-2.167 0-3.933 0.667-5.3 2-1.367 1.333-2.05 3.367-2.05 6.1v0 3.7c0 2.733 0.683 4.767 2.05 6.1 1.367 1.333 3.133 2 5.3 2zM147.4 0h-4v-25.8h4v4.75h0.25c0.467-1.233 1.3-2.333 2.5-3.3 1.2-0.967 2.85-1.45 4.95-1.45v0h1.55v4h-2.35c-2.167 0-3.86 0.407-5.08 1.22-1.213 0.82-1.82 1.847-1.82 3.08v0zM165.75 0h-4v-25.8h4v4.2h0.2c0.633-1.467 1.527-2.633 2.68-3.5 1.147-0.867 2.687-1.3 4.62-1.3v0c2.667 0 4.773 0.857 6.32 2.57 1.553 1.72 2.33 4.147 2.33 7.28v0 16.55h-4v-15.85c0-4.633-1.95-6.95-5.85-6.95v0c-0.8 0-1.577 0.1-2.33 0.3-0.747 0.2-1.42 0.5-2.02 0.9-0.6 0.4-1.073 0.907-1.42 1.52-0.353 0.62-0.53 1.347-0.53 2.18v0z" fill="black" fill-rule="nonzero" stroke="none" stroke-width="1" stroke-linecap="butt" stroke-linejoin="miter" stroke-miterlimit="10" stroke-dasharray="" stroke-dashoffset="0" font-family="none" font-weight="none" font-size="none" text-anchor="none" style="mix-blend-mode: normal" opacity="1"></path><path transform="translate(0,47.9)" d="M14.45 0.6v0c-2.833 0-5.25-0.543-7.25-1.63-2-1.08-3.7-2.57-5.1-4.47v0l3.1-2.6c1.233 1.633 2.6 2.873 4.1 3.72 1.5 0.853 3.267 1.28 5.3 1.28v0c2.5 0 4.41-0.6 5.73-1.8 1.313-1.2 1.97-2.8 1.97-4.8v0c0-1.667-0.5-2.95-1.5-3.85-1-0.9-2.65-1.617-4.95-2.15v0l-2.85-0.65c-3.2-0.733-5.64-1.843-7.32-3.33-1.687-1.48-2.53-3.57-2.53-6.27v0c0-1.533 0.283-2.9 0.85-4.1 0.567-1.2 1.36-2.2 2.38-3 1.013-0.8 2.23-1.41 3.65-1.83 1.413-0.413 2.97-0.62 4.67-0.62v0c2.633 0 4.893 0.483 6.78 1.45 1.88 0.967 3.47 2.383 4.77 4.25v0l-3.15 2.3c-0.967-1.333-2.133-2.383-3.5-3.15-1.367-0.767-3.067-1.15-5.1-1.15v0c-2.233 0-3.993 0.473-5.28 1.42-1.28 0.953-1.92 2.38-1.92 4.28v0c0 1.667 0.543 2.923 1.63 3.77 1.08 0.853 2.72 1.53 4.92 2.03v0l2.85 0.65c3.433 0.767 5.917 1.933 7.45 3.5 1.533 1.567 2.3 3.65 2.3 6.25v0c0 1.6-0.273 3.05-0.82 4.35-0.553 1.3-1.347 2.4-2.38 3.3-1.033 0.9-2.29 1.6-3.77 2.1-1.487 0.5-3.163 0.75-5.03 0.75zM33.3 0v-37h4v15.4h0.2c0.633-1.467 1.523-2.633 2.67-3.5 1.153-0.867 2.697-1.3 4.63-1.3v0c2.667 0 4.777 0.857 6.33 2.57 1.547 1.72 2.32 4.147 2.32 7.28v0 16.55h-4v-15.85c0-4.633-1.95-6.95-5.85-6.95v0c-0.8 0-1.573 0.1-2.32 0.3-0.753 0.2-1.43 0.5-2.03 0.9-0.6 0.4-1.073 0.907-1.42 1.52-0.353 0.62-0.53 1.347-0.53 2.18v0 17.9zM71.45 0.6v0c-1.733 0-3.317-0.317-4.75-0.95-1.433-0.633-2.657-1.543-3.67-2.73-1.02-1.18-1.813-2.597-2.38-4.25-0.567-1.647-0.85-3.503-0.85-5.57v0c0-2.033 0.283-3.883 0.85-5.55 0.567-1.667 1.36-3.093 2.38-4.28 1.013-1.18 2.237-2.087 3.67-2.72 1.433-0.633 3.017-0.95 4.75-0.95v0c1.733 0 3.31 0.317 4.73 0.95 1.413 0.633 2.637 1.54 3.67 2.72 1.033 1.187 1.833 2.613 2.4 4.28 0.567 1.667 0.85 3.517 0.85 5.55v0c0 2.067-0.283 3.923-0.85 5.57-0.567 1.653-1.367 3.07-2.4 4.25-1.033 1.187-2.257 2.097-3.67 2.73-1.42 0.633-2.997 0.95-4.73 0.95zM71.45-2.95v0c2.167 0 3.933-0.667 5.3-2 1.367-1.333 2.05-3.367 2.05-6.1v0-3.7c0-2.733-0.683-4.767-2.05-6.1-1.367-1.333-3.133-2-5.3-2v0c-2.167 0-3.933 0.667-5.3 2-1.367 1.333-2.05 3.367-2.05 6.1v0 3.7c0 2.733 0.683 4.767 2.05 6.1 1.367 1.333 3.133 2 5.3 2zM93.65 0l-6.9-25.8h3.9l2.75 11.15 2.75 11.3h0.1l3.15-11.3 3.25-11.15h3.55l3.35 11.15 3.2 11.3h0.1l2.65-11.3 2.8-11.15h3.75l-6.85 25.8h-4.95l-3.6-12.4-2.25-7.85h-0.1l-2.2 7.85-3.6 12.4z" fill="black" fill-rule="nonzero" stroke="none" stroke-width="1" stroke-linecap="butt" stroke-linejoin="miter" stroke-miterlimit="10" stroke-dasharray="" stroke-dashoffset="0" font-family="none" font-weight="none" font-size="none" text-anchor="none" style="mix-blend-mode: normal" opacity="1"></path></g></svg></g></svg></g></svg></g></svg></g><g transform="matrix(1,0,0,1,0,0.4999999999999858)"><svg viewBox="0 0 216.06338615512925 200" height="200" width="216.06338615512925"><g><svg xmlns="http://www.w3.org/2000/svg" xmlns:xlink="http://www.w3.org/1999/xlink" version="1.1" x="0" y="0" viewBox="11.140999999999996 14.030000000000003 77.718 71.94000000000001" enable-background="new 0 0 100 100" xml:space="preserve" height="200" width="216.06338615512925" class="icon-icon-0" data-fill-palette-color="accent" id="SvgjsSvg2617"><path fill="black" d="M85.859 34.59c1.66 0 3-1.34 3-3v-3c0-1.66-1.34-3-3-3h-12.44c-2.48 0-4.5 2.02-4.5 4.5v1.65c-1.53-0.86-3.27-1.38-5.12-1.49-1.71-5.56-6.8-9.49-12.81-9.57-2.84-4.15-7.52-6.65-12.61-6.65-8.11 0-14.77 6.34-15.3 14.33-1.44 0.82-2.61 2.05-3.37 3.54-4.78 1.42-8.27 5.77-8.52 10.85-0.08 0.44-0.06 0.89 0.06 1.34l11.06 38.77c0.36 1.25 1.5 2.11 2.8 2.11h36.04c0.74 0 1.42-0.28 1.94-0.76 0.47 1.05 1.52 1.76 2.73 1.76h14.64c1.55 0 2.85-1.18 2.99-2.73l2.81-31.17c1.47-0.19 2.6-1.45 2.6-2.97v-4.24c0-1.66-1.34-3-3-3h-7.94v-7.27H85.859zM14.579 40.38c1.1-3.16 3.88-5.51 7.28-5.97 0.51-2.03 2.1-3.62 4.14-4.11-0.02-0.3-0.05-0.6-0.05-0.9 0-6.89 5.56-12.46 12.43-12.46 4.8 0 8.96 2.74 11.03 6.74 0.46-0.06 0.92-0.1 1.39-0.1 5.57 0 10.14 4.26 10.65 9.71 0.54-0.1 1.09-0.16 1.65-0.16 2.21 0 4.24 0.79 5.82 2.11v5.14H14.579zM25.699 43.29h11.63l0.4 7.14c-4.63 1.04-8.22 3.36-9.75 6.33L25.699 43.29zM32.259 82.06l-2.84-16.77c2.06 2.21 5.39 3.84 9.4 4.54l0.69 12.23H32.259zM30.069 60.02c0-3.94 5.99-7.27 13.08-7.27 7.1 0 13.09 3.33 13.09 7.27s-5.99 7.27-13.09 7.27C36.059 67.29 30.069 63.96 30.069 60.02zM54.019 82.06h-7.25l0.69-12.23c4-0.69 7.33-2.32 9.4-4.51L54.019 82.06zM58.309 56.73c-1.55-2.96-5.13-5.28-9.76-6.3l0.4-7.14h8.91c-0.28 0.45-0.44 0.99-0.44 1.57v4.24c0 1.19 0.7 2.23 1.72 2.71L58.309 56.73zM79.545 82.97H66.732c-0.517 0-0.949-0.394-0.996-0.91l-0.377-4.16-2.33-25.8h20.22l-2.708 29.96C80.495 82.575 80.063 82.97 79.545 82.97zM85.859 45.86v2.24c0 0.552-0.448 1-1 1h-1.34v-0.04h-20.76l-1.34 0.04c-0.552 0-1-0.448-1-1v-2.24c0-0.552 0.448-1 1-1h23.44C85.411 44.86 85.859 45.308 85.859 45.86zM74.919 32.59v9.27h-3V30.09c0-0.828 0.672-1.5 1.5-1.5h11.44c0.552 0 1 0.448 1 1v1c0 0.552-0.448 1-1 1h-8.94C75.367 31.59 74.919 32.038 74.919 32.59z"></path></svg></g></svg></g></svg></g><defs><mask></mask></defs></svg><rect width="395.52" height="124.44812709893695" fill="black" stroke="none" visibility="hidden"></rect></g></mask></svg><rect width="395.52" height="124.44812709893695" fill="black" stroke="none" visibility="hidden"></rect></g></mask><linearGradient x1="0" x2="1" y1="0.5" y2="0.5" id="a8690112-8aa7-4a0e-8194-dc10c9a6e00a"><stop stop-color="#ffa62e" offset="0"></stop><stop stop-color="#f71b3d" offset="1"></stop></linearGradient><rect width="395.52" height="124.44812709893695" fill="#ffffff" mask="url(#65564de9-4db6-42b3-a2bc-59a2f9b29ba5)" data-fill-palette-color="accent"></rect></svg><rect width="395.52" height="124.44812709893695" fill="none" stroke="none" visibility="hidden"></rect></g></svg></g></svg>